Coordinates
version=1
nRows=49
nColumns=12
inDegrees=yes

Units are S.I. units (second, meters, Newtons, ...)
Angles are in degrees

endheader
time	SC_y	SC_z	SC_x	AC_y	AC_z	AC_x	GH_y	GH_z	GH_yy	EL_x	PS_y
       0.0              -35.65          21.91          6.761          65.49         -16.58         -15.55          175.4          70.39          165.6          6.486          44.06
  0.004602              -35.65          21.91          6.767          65.49         -16.58         -15.55          175.3          70.38          165.6          6.504          44.07
  0.009203              -35.65          21.91          6.774          65.48         -16.57         -15.55          175.3          70.37          165.6          6.523          44.08
   0.01381              -35.65          21.91          6.781          65.48         -16.57         -15.55          175.2          70.37          165.6          6.543           44.1
   0.01841              -35.65           21.9          6.789          65.48         -16.57         -15.55          175.2          70.36          165.6          6.564          44.11
   0.02301              -35.65           21.9          6.797          65.48         -16.57         -15.54          175.1          70.35          165.6          6.587          44.12
   0.02761              -35.65           21.9          6.806          65.47         -16.57         -15.54          175.0          70.34          165.6          6.612          44.14
   0.03221              -35.65           21.9          6.816          65.47         -16.57         -15.54          175.0          70.33          165.6          6.638          44.16
   0.03681              -35.65           21.9          6.826          65.47         -16.57         -15.54          174.9          70.32          165.6          6.666          44.17
   0.04142              -35.65          21.89          6.837          65.47         -16.57         -15.54          174.8          70.31          165.6          6.695          44.19
   0.04602              -35.65          21.89          6.849          65.46         -16.57         -15.53          174.7           70.3          165.6          6.728          44.21
   0.05062              -35.64          21.89          6.861          65.46         -16.57         -15.53          174.6          70.28          165.6          6.762          44.23
   0.05522              -35.64          21.89          6.875          65.45         -16.57         -15.53          174.5          70.27          165.6          6.799          44.26
   0.05982              -35.64          21.88          6.889          65.45         -16.57         -15.52          174.4          70.25          165.6           6.84          44.28
   0.06442              -35.64          21.88          6.905          65.44         -16.57         -15.52          174.3          70.24          165.6          6.883          44.31
   0.06903              -35.64          21.88          6.922          65.44         -16.57         -15.51          174.2          70.22          165.6          6.931          44.34
   0.07363              -35.64          21.87          6.941          65.43         -16.56         -15.51          174.1           70.2          165.6          6.982          44.37
   0.07823              -35.64          21.87          6.962          65.43         -16.56          -15.5          173.9          70.18          165.6          7.038          44.41
   0.08283              -35.63          21.86          6.984          65.42         -16.56          -15.5          173.8          70.15          165.5          7.099          44.45
   0.08743              -35.63          21.86          7.008          65.41         -16.56         -15.49          173.6          70.13          165.5          7.166          44.49
   0.09203              -35.63          21.85          7.035           65.4         -16.56         -15.49          173.4           70.1          165.5          7.239          44.54
   0.09664              -35.63          21.85          7.064           65.4         -16.56         -15.48          173.2          70.07          165.5           7.32          44.59
    0.1012              -35.62          21.84          7.097          65.39         -16.55         -15.47          172.9          70.03          165.5          7.409          44.65
    0.1058              -35.62          21.83          7.133          65.37         -16.55         -15.46          172.7          69.99          165.5          7.508          44.71
    0.1104              -35.62          21.83          7.173          65.36         -16.55         -15.45          172.4          69.95          165.5          7.618          44.78
     0.115              -35.61          21.82          7.218          65.35         -16.55         -15.44          172.1           69.9          165.5          7.741          44.86
    0.1196              -35.61          21.81          7.268          65.33         -16.54         -15.43          171.7          69.85          165.5          7.878          44.94
    0.1242               -35.6          21.79          7.324          65.32         -16.54         -15.42          171.3          69.79          165.5          8.033          45.04
    0.1288               -35.6          21.78          7.388           65.3         -16.54          -15.4          170.9          69.72          165.5          8.208          45.15
    0.1334              -35.59          21.77           7.46          65.27         -16.53         -15.38          170.3          69.65          165.5          8.406          45.28
    0.1381              -35.58          21.75          7.543          65.25         -16.53         -15.36          169.7          69.56          165.4          8.633          45.42
    0.1427              -35.58          21.73          7.637          65.22         -16.52         -15.34          169.1          69.46          165.4          8.893          45.59
    0.1473              -35.57          21.71          7.746          65.19         -16.51         -15.32          168.3          69.34          165.4          9.193          45.78
    0.1519              -35.55          21.68          7.873          65.15         -16.51         -15.28          167.4          69.21          165.4          9.541           46.0
    0.1565              -35.54          21.65          8.022           65.1          -16.5         -15.25          166.3          69.05          165.3          9.949          46.26
    0.1611              -35.53          21.61          8.197          65.05         -16.49         -15.21          165.0          68.87          165.3          10.43          46.57
    0.1657              -35.51          21.57          8.405          64.98         -16.47         -15.16          163.5          68.64          165.3           11.0          46.93
    0.1703              -35.49          21.52          8.655          64.91         -16.46          -15.1          161.7          68.38          165.2          11.69          47.37
    0.1749              -35.46          21.46          8.957          64.81         -16.44         -15.02          159.6          68.06          165.2          12.52           47.9
    0.1795              -35.43          21.38          9.326           64.7         -16.42         -14.93          156.9          67.67          165.1          13.53          48.54
    0.1841              -35.39          21.29          9.781          64.56         -16.39         -14.82          153.7          67.19          165.0          14.78          49.34
    0.1887              -35.34          21.17          10.35          64.39         -16.35         -14.69          149.6          66.58          164.9          16.34          50.33
    0.1933              -35.27          21.02          11.06          64.17         -16.31         -14.51          144.4          65.83          164.8           18.3          51.58
    0.1979              -35.19          20.83          11.97          63.89         -16.25         -14.29          137.9          64.86          164.6          20.79          53.16
    0.2025              -35.09          20.59          13.14          63.53         -16.18         -14.01          129.6          63.63          164.4          23.99           55.2
    0.2071              -34.96          20.29          14.63          63.07         -16.09         -13.65          118.8          62.05          164.1          28.08           57.8
    0.2117              -34.79          19.89          16.54          62.48         -15.97         -13.19          105.1          60.02          163.7          33.32          61.14
    0.2163              -34.57           19.4          18.93          61.74         -15.83         -12.61           87.9          57.48          163.2           39.9          65.32
    0.2209              -34.31          18.79          21.86          60.85         -15.65          -11.9           66.9          54.38          162.7          47.92          70.43
